# Blender v2.92.0 OBJ File: ''
# www.blender.org
o AxisX
v 0 0 -0.025
v 0.8 0 -0.025
v 0 -0.0177 -0.0177
v 0.8 -0.0177 -0.0177
v 0 -0.025 0
v 0.8 -0.025 0
v 0 -0.0177 0.0177
v 0.8 -0.0177 0.0177
v 0 0 0.025
v 0.8 0 0.025
v 0 0.0177 0.0177
v 0.8 0.0177 0.0177
v 0 0.025 0
v 0.8 0.025 0
v 0 0.0177 -0.0177
v 0.8 0.0177 -0.0177
v 0.8 0 0.0
v 0.8 0 -0.1
v 0.8 -0.071 -0.071
v 0.8 -0.1 0
v 0.8 -0.071 0.071
v 0.8 0 0.1
v 0.8 0.071 0.071
v 0.8 0.1 0
v 0.8 0.071 -0.071
v 1 0 0
vn 0 -0.38 -0.92
vn 0 -0.92 -0.38
vn 0 -0.92 0.38
vn 0 -0.38 0.92
vn 0 0.38 0.92
vn 0 0.92 0.38
vn 1 0 0
vn 0 0.92 -0.38
vn 0 0.38 -0.92
vn -1 0 0
vn 0.42 -0.35 -0.84
vn 0.42 -0.84 -0.35
vn 0.42 -0.84 0.35
vn 0.42 -0.35 0.84
vn 0.42 0.35 0.84
vn 0.42 0.84 0.35
vn 0.42 0.84 -0.35
vn 0.42 0.35 -0.84
f 1//1 2//1 4//1 3//1
f 3//2 4//2 6//2 5//2
f 5//3 6//3 8//3 7//3
f 7//4 8//4 10//4 9//4
f 9//5 10//5 12//5 11//5
f 11//6 12//6 14//6 13//6
f 4//7 2//7 16//7 14//7 12//7 10//7 8//7 6//7
f 13//8 14//8 16//8 15//8
f 15//9 16//9 2//9 1//9
f 1//10 3//10 5//10 7//10 9//10 11//10 13//10 15//10
f 17//10 18//10 19//10
f 18//11 26//11 19//11
f 17//10 19//10 20//10
f 19//12 26//12 20//12
f 17//10 20//10 21//10
f 20//13 26//13 21//13
f 17//10 21//10 22//10
f 21//14 26//14 22//14
f 17//10 22//10 23//10
f 22//15 26//15 23//15
f 17//10 23//10 24//10
f 23//16 26//16 24//16
f 17//10 24//10 25//10
f 24//17 26//17 25//17
f 17//10 25//10 18//10
f 25//18 26//18 18//18
