# Blender v2.92.0 OBJ File: ''
# www.blender.org
o RingX
v -0.05 -0.052336 -0.998630
v -0.05 -0.246153 -0.969231
v -0.05 -0.430511 -0.902585
v -0.05 -0.598325 -0.801254
v -0.05 -0.743145 -0.669131
v -0.05 -0.859406 -0.511293
v -0.05 -0.942641 -0.333807
v -0.05 -0.989651 -0.143493
v -0.05 -0.998630 0.052336
v -0.05 -0.969231 0.246153
v -0.05 -0.902585 0.430511
v -0.05 -0.801254 0.598325
v -0.05 -0.669131 0.743145
v -0.05 -0.511293 0.859406
v -0.05 -0.333807 0.942642
v -0.05 -0.143492 0.989651
v -0.05 0.052336 0.998629
v -0.05 0.246154 0.969231
v -0.05 0.430512 0.902585
v -0.05 0.598325 0.801253
v -0.05 0.743145 0.669130
v -0.05 0.859407 0.511292
v -0.05 0.942642 0.333806
v -0.05 0.989652 0.143492
v -0.05 0.998629 -0.052337
v -0.05 0.969231 -0.246154
v -0.05 0.902585 -0.430512
v -0.05 0.801253 -0.598326
v -0.05 0.669130 -0.743146
v -0.05 0.511292 -0.859407
v -0.05 0.333806 -0.942642
v -0.05 0.143491 -0.989652
v 0.05 0 -1
v 0.05 -0.195090 -0.980785
v 0.05 -0.382683 -0.923880
v 0.05 -0.555570 -0.831470
v 0.05 -0.707107 -0.707107
v 0.05 -0.831470 -0.555570
v 0.05 -0.923880 -0.382683
v 0.05 -0.980785 -0.195090
v 0.05 -1 0
v 0.05 -0.980785 0.195090
v 0.05 -0.923880 0.382683
v 0.05 -0.831470 0.555570
v 0.05 -0.707107 0.707107
v 0.05 -0.555570 0.831470
v 0.05 -0.382683 0.923880
v 0.05 -0.195090 0.980785
v 0.05 0 1
v 0.05 0.195091 0.980785
v 0.05 0.382684 0.923879
v 0.05 0.555571 0.831469
v 0.05 0.707107 0.707106
v 0.05 0.831470 0.555570
v 0.05 0.923880 0.382683
v 0.05 0.980785 0.195089
v 0.05 1 0
v 0.05 0.980785 -0.195091
v 0.05 0.923879 -0.382684
v 0.05 0.831469 -0.555571
v 0.05 0.707106 -0.707108
v 0.05 0.555569 -0.831470
v 0.05 0.382682 -0.923880
v 0.05 0.195089 -0.980786
vn 0 0.9974 0.0719
vn 0 -0.8693 0.4943
vn 0 0.9923 -0.1240
vn 0 -0.7561 0.6544
vn 0 0.9490 -0.3152
vn 0 -0.6139 0.7894
vn 0 0.8693 -0.4943
vn 0 -0.4481 0.8940
vn 0 -0.1240 -0.9923
vn 0 0.7561 -0.6544
vn 0 -0.2651 0.9642
vn 0 -0.3152 -0.9490
vn 0 0.6139 -0.7894
vn 0 -0.0719 0.9974
vn 0 -0.4943 -0.8693
vn 0 0.4481 -0.8940
vn 0 0.1240 0.9923
vn 0 -0.6544 -0.7561
vn 0 0.2651 -0.9642
vn 0 0.3152 0.9490
vn 0 -0.7894 -0.6139
vn 0 0.0719 -0.9974
vn 0 0.4943 0.8693
vn 0 -0.8940 -0.4481
vn 0 0.6544 0.7561
vn 0 -0.9642 -0.2651
vn 0 0.7894 0.6139
vn 0 -0.9974 -0.0719
vn 0 0.8940 0.4481
vn 0 -0.9923 0.1240
vn 0 0.9642 0.2651
vn 0 -0.9490 0.3152
f 25//1 24//1 56//1 57//1
f 12//2 11//2 43//2 44//2
f 26//3 25//3 57//3 58//3
f 13//4 12//4 44//4 45//4
f 27//5 26//5 58//5 59//5
f 14//6 13//6 45//6 46//6
f 28//7 27//7 59//7 60//7
f 15//8 14//8 46//8 47//8
f 2//9 1//9 33//9 34//9
f 29//10 28//10 60//10 61//10
f 16//11 15//11 47//11 48//11
f 3//12 2//12 34//12 35//12
f 30//13 29//13 61//13 62//13
f 17//14 16//14 48//14 49//14
f 4//15 3//15 35//15 36//15
f 31//16 30//16 62//16 63//16
f 18//17 17//17 49//17 50//17
f 5//18 4//18 36//18 37//18
f 32//19 31//19 63//19 64//19
f 19//20 18//20 50//20 51//20
f 6//21 5//21 37//21 38//21
f 1//22 32//22 64//22 33//22
f 20//23 19//23 51//23 52//23
f 7//24 6//24 38//24 39//24
f 21//25 20//25 52//25 53//25
f 8//26 7//26 39//26 40//26
f 22//27 21//27 53//27 54//27
f 9//28 8//28 40//28 41//28
f 23//29 22//29 54//29 55//29
f 10//30 9//30 41//30 42//30
f 24//31 23//31 55//31 56//31
f 11//32 10//32 42//32 43//32
