# Blender v2.92.0 OBJ File: ''
# www.blender.org
o ScaleX
v 0 0 -0.025
v 0.8 0 -0.025
v 0.8 -0.0177 -0.0177
v 0 -0.0177 -0.0177
v 0.8 -0.025 0
v 0 -0.025 0
v 0.8 -0.0177 0.0177
v 0 -0.0177 0.0177
v 0.8 -0 0.025
v 0 0 0.025
v 0.8 0.0177 0.0177
v 0 0.0177 0.0177
v 0.8 0.025 0
v 0 0.025 0
v 0.8 0.0177 -0.0177
v 0 0.0177 -0.0177
v 0.838023 -0.1 0.061977
v 0.838023 -0.061977 0.1
v 0.8 -0.061977 0.061977
v 0.838023 0.061977 0.1
v 0.838023 0.1 0.061977
v 0.8 0.061977 0.061977
v 0.838023 -0.1 -0.061977
v 0.8 -0.061977 -0.061977
v 0.838023 -0.061977 -0.1
v 0.838023 0.1 -0.061977
v 0.838023 0.061977 -0.1
v 0.8 0.061977 -0.061977
v 0.961977 -0.1 0.061977
v 1 -0.061977 0.061977
v 0.961977 -0.061977 0.1
v 0.961977 0.1 0.061977
v 0.961977 0.061977 0.1
v 1 0.061977 0.061977
v 0.961977 -0.1 -0.061977
v 0.961977 -0.061977 -0.1
v 1 -0.061977 -0.061977
v 0.961977 0.1 -0.061977
v 1 0.061977 -0.061977
v 0.961977 0.061977 -0.1
vn 0 0 1
vn 1 0 0
vn 0 1 0
vn -1 0 0
vn 0 0 -1
vn -0.5773 -0.5774 0.5774
vn -0.5773 0.5774 0.5774
vn -0.5773 -0.5774 -0.5774
vn -0.5773 0.5774 -0.5774
vn 0.5774 -0.5773 0.5774
vn 0.5774 0.5773 0.5774
vn 0.5774 -0.5773 -0.5774
vn 0.5774 0.5773 -0.5774
vn -0.7071 -0.7071 0
vn -0.7071 0 0.7071
vn -0.7071 0.7071 0
vn -0.7071 0 -0.7071
vn 0 -0.7071 -0.7071
vn 0 0.7071 -0.7071
vn 0.7071 0 -0.7071
vn 0.7071 -0.7071 0
vn 0.7071 0.7071 0
vn 0.7071 0 0.7071
vn 0 -0.7071 0.7071
vn 0 0.7071 0.7071
vn 0 -1 0
vn 0 -0.3818 -0.9242
vn 0 -0.9242 -0.3818
vn 0 -0.9242 0.3818
vn 0 -0.3818 0.9242
vn 0 0.3818 0.9242
vn 0 0.9242 0.3818
vn 0 0.9242 -0.3818
vn 0 0.3818 -0.9242
f 31//1 33//1 20//1 18//1
f 37//2 39//2 34//2 30//2
f 38//3 26//3 21//3 32//3
f 19//4 22//4 28//4 24//4
f 25//5 27//5 40//5 36//5
f 17//6 18//6 19//6
f 20//7 21//7 22//7
f 23//8 24//8 25//8
f 26//9 27//9 28//9
f 29//10 30//10 31//10
f 32//11 33//11 34//11
f 35//12 36//12 37//12
f 38//13 39//13 40//13
f 23//14 17//14 19//14 24//14
f 18//15 20//15 22//15 19//15
f 21//16 26//16 28//16 22//16
f 27//17 25//17 24//17 28//17
f 35//18 23//18 25//18 36//18
f 26//19 38//19 40//19 27//19
f 39//20 37//20 36//20 40//20
f 29//21 35//21 37//21 30//21
f 38//22 32//22 34//22 39//22
f 33//23 31//23 30//23 34//23
f 17//24 29//24 31//24 18//24
f 32//25 21//25 20//25 33//25
f 23//26 35//26 29//26 17//26
f 1//27 2//27 3//27 4//27
f 4//28 3//28 5//28 6//28
f 6//29 5//29 7//29 8//29
f 8//30 7//30 9//30 10//30
f 10//31 9//31 11//31 12//31
f 12//32 11//32 13//32 14//32
f 3//2 2//2 15//2 13//2 11//2 9//2 7//2 5//2
f 14//33 13//33 15//33 16//33
f 16//34 15//34 2//34 1//34
f 1//4 4//4 6//4 8//4 10//4 12//4 14//4 16//4
