# Blender 3.6.0
# www.blender.org
o Icon
v -0.473761 -0.192723 -0.000003
v -0.688487 -0.245560 -0.000003
v 0.540383 -0.171135 -0.000003
v 0.459900 -0.328088 -0.000003
v 0.684062 0.279694 -0.000003
v 0.298031 0.061394 -0.000003
v 0.495945 -0.044483 -0.000003
v 0.416304 -0.352758 -0.000003
v 0.357620 -0.388602 -0.000003
v 0.288081 -0.099270 -0.000003
v 0.269002 0.063995 -0.000003
v 0.216700 -0.149088 -0.000003
v -0.080807 -0.483259 -0.000003
v -0.053593 -0.390555 -0.000003
v -0.130557 -0.362683 -0.000003
v -0.429938 -0.155448 -0.000003
v -0.375517 0.068931 -0.000003
v -0.420399 0.046672 -0.000003
v -0.706069 0.341619 -0.000003
v -0.687030 0.250519 -0.000003
v -0.420480 -0.468753 -0.000003
v 0.593735 0.502902 -0.000003
v 0.574096 0.585803 -0.000003
v 0.521332 0.596322 -0.000003
v -0.069217 0.863055 -0.000003
v -0.512664 0.733580 -0.000003
v -0.403065 0.746711 -0.000003
v -0.519414 0.645995 -0.000003
v -0.211838 0.828925 -0.000003
v -0.148815 0.900331 -0.000003
v 0.319927 0.745801 -0.000003
v -0.431071 -0.407385 -0.000003
v -0.633155 -0.393078 -0.000003
v -0.713828 -0.014645 -0.000003
v -0.738910 0.433231 -0.000003
v -0.164647 -0.026633 -0.000003
v -0.188372 0.051603 0.000195
v -0.291780 -0.141305 -0.000003
v -0.378697 0.355152 -0.000003
v 0.151671 -0.663559 -0.000254
v 0.014450 -0.615041 -0.000003
v 0.169937 -0.805169 0.001634
v -0.180856 -0.834768 -0.004756
v -0.145011 -0.611418 -0.000003
v -0.139135 -0.646927 -0.000003
v -0.153249 -0.468162 -0.000003
v -0.166820 -0.390776 -0.000003
v 0.009280 0.048792 -0.000003
v 0.018820 -0.066047 -0.000003
v 0.101860 -0.153328 -0.000003
v 0.172817 0.223565 -0.000003
v -0.168042 0.351148 -0.000003
v 0.063702 0.448792 -0.000003
v 0.256359 -0.666563 -0.000003
v 0.203333 -0.560220 -0.000003
v 0.271320 -0.598464 -0.000003
v 0.700010 -0.192036 -0.000003
v 0.408459 -0.037983 -0.000003
v 0.297515 0.037607 -0.000003
v 0.454640 -0.055860 -0.000003
v 0.718485 0.103103 -0.000003
v 0.378014 -0.347282 -0.000003
v 0.578356 -0.443413 -0.000003
v 0.123496 0.109406 -0.000003
v 0.161747 0.803225 -0.000003
v 0.214760 -0.504413 -0.000003
v -0.264762 -0.615971 -0.000003
v -0.154925 -0.600260 -0.000003
v -0.252453 -0.682462 0.007883
v -0.384351 0.131818 -0.000003
v -0.188153 -0.079002 -0.000003
v -0.137491 -0.073169 -0.000003
v -0.030798 -0.043520 -0.000821
v 0.259134 0.826062 -0.000003
v -0.037619 -0.453838 -0.000003
v -0.364415 -0.670523 -0.000003
v -0.718786 0.289424 -0.000003
v -0.626606 0.509199 -0.000003
v 0.004102 -0.901470 -0.000003
v -0.157559 0.109821 -0.000003
v 0.383431 -0.112615 -0.000003
v 0.282085 -0.194666 -0.000003
v 0.743183 0.237264 -0.000003
v -0.155365 -0.675571 0.003974
vn -0.0000 -0.0000 1.0000
vn 0.0018 -0.0020 1.0000
vn -0.0139 -0.0078 0.9999
vn 0.0011 -0.0020 1.0000
vn -0.0011 -0.0002 1.0000
vn 0.0021 -0.0014 1.0000
vn -0.0011 -0.0004 1.0000
vn -0.0007 0.0007 1.0000
vn 0.0069 0.0142 0.9999
vn -0.0101 0.0004 0.9999
vn 0.0074 0.0008 1.0000
vn -0.0075 0.0528 0.9986
vn 0.1333 0.1410 0.9810
f 63//1 3//1 4//1
f 7//1 57//1 61//1
f 10//1 11//1 12//1
f 13//1 14//1 15//1
f 16//1 17//1 18//1
f 22//1 23//1 24//1
f 28//1 27//1 26//1
f 29//1 25//1 30//1
f 36//2 37//2 38//2
f 41//3 44//3 45//3 43//3 79//3
f 46//1 15//1 47//1
f 12//1 48//1 49//1
f 50//1 12//1 49//1
f 56//1 9//1 55//1
f 10//1 58//1 59//1
f 8//1 62//1 9//1
f 63//1 4//1 8//1
f 11//1 64//1 48//1
f 40//4 66//4 41//4
f 17//5 37//5 70//5
f 80//6 73//6 53//6 52//6
f 65//1 31//1 74//1
f 20//1 34//1 18//1
f 10//1 59//1 11//1
f 13//1 75//1 14//1
f 16//1 38//1 17//1
f 77//1 20//1 19//1
f 17//7 38//7 37//7
f 38//1 71//1 36//1
f 46//1 13//1 15//1
f 12//1 11//1 48//1
f 56//1 54//1 9//1
f 10//1 81//1 58//1
f 10//1 82//1 81//1
f 52//8 70//8 37//8
f 59//1 58//1 6//1
f 68//1 21//1 67//1
f 9//1 63//1 8//1
f 63//1 57//1 3//1
f 7//1 3//1 57//1
f 40//9 41//9 42//9
f 42//10 41//10 79//10
f 80//11 72//11 73//11
f 61//1 83//1 5//1
f 5//1 22//1 51//1
f 22//1 24//1 51//1
f 5//1 51//1 6//1
f 24//1 31//1 53//1
f 31//1 65//1 53//1
f 65//1 25//1 53//1
f 25//1 29//1 53//1
f 29//1 27//1 52//1
f 27//1 28//1 39//1
f 78//1 35//1 19//1
f 27//1 39//1 52//1
f 28//1 78//1 39//1
f 61//1 5//1 7//1
f 60//1 7//1 58//1
f 6//1 7//1 5//1
f 6//1 58//1 7//1
f 53//1 51//1 24//1
f 52//1 53//1 29//1
f 1//1 16//1 34//1
f 16//1 18//1 34//1
f 18//1 39//1 20//1
f 34//1 2//1 1//1
f 78//1 19//1 39//1
f 19//1 20//1 39//1
f 21//1 32//1 33//1
f 32//1 1//1 33//1
f 1//1 2//1 33//1
f 52//1 39//1 70//1
f 67//12 84//12 68//12
f 68//1 32//1 21//1
f 21//13 69//13 67//13
f 9//1 54//1 63//1
f 76//1 21//1 33//1
